<svg viewBox="0 0 24 24" fill="none" xmlns="http://www.w3.org/2000/svg">
<path opacity="0.15" fill-rule="evenodd" clip-rule="evenodd" d="M5.33337 10C5.33337 9.89673 5.4687 9.8676 5.53191 9.94929C5.58354 10.016 5.63997 10.0802 5.7012 10.1415L10.5867 15.0269C11.3677 15.808 12.634 15.808 13.4151 15.0269L18.3006 10.1415C18.3617 10.0803 18.4181 10.0162 18.4697 9.94953C18.5324 9.86845 18.6667 9.8975 18.6667 10V10V15.697C18.6667 16.8016 17.7713 17.697 16.6667 17.697H7.33337C6.2288 17.697 5.33337 16.8016 5.33337 15.697V10V10Z" fill="black"/>
<path fill-rule="evenodd" clip-rule="evenodd" d="M5.71615 7.48975C5.47542 7.81997 5.33337 8.22673 5.33337 8.66667V14.3636C5.33337 15.4682 6.2288 16.3636 7.33337 16.3636H16.6667C17.7713 16.3636 18.6667 15.4682 18.6667 14.3636V8.66666C18.6667 8.22716 18.5249 7.82076 18.2846 7.49071L13.4151 12.3603C12.634 13.1413 11.3677 13.1413 10.5867 12.3603L5.71615 7.48975Z" fill="white"/>
</svg>
